<svg width="235" height="49" viewBox="0 0 235 49" fill="none" xmlns="http://www.w3.org/2000/svg">
<path d="M12.25 44.9166C11.1271 44.9166 10.1661 44.5171 9.36716 43.7181C8.56818 42.9192 8.16802 41.9575 8.16666 40.8332V8.16658C8.16666 7.04367 8.56682 6.08272 9.36716 5.28375C10.1675 4.48478 11.1284 4.08461 12.25 4.08325H36.75C37.8729 4.08325 38.8345 4.48342 39.6349 5.28375C40.4352 6.08409 40.8347 7.04503 40.8333 8.16658V40.8332C40.8333 41.9562 40.4338 42.9178 39.6349 43.7181C38.8359 44.5185 37.8743 44.9179 36.75 44.9166H12.25ZM12.25 40.8332H36.75V8.16658H32.6667V22.4583L27.5625 19.3958L22.4583 22.4583V8.16658H12.25V40.8332Z" fill="black"/>
<path d="M60.916 38V11.684H71.392C76.576 11.684 79.744 14.384 79.744 18.776C79.744 21.692 78.448 23.78 75.964 24.824C78.736 25.724 80.14 27.812 80.14 30.872C80.14 35.372 77.008 38 71.572 38H60.916ZM70.996 15.752H65.524V22.916H71.104C73.624 22.916 75.028 21.584 75.028 19.244C75.028 16.976 73.588 15.752 70.996 15.752ZM71.392 26.804H65.524V33.932H71.392C73.984 33.932 75.424 32.672 75.424 30.296C75.424 28.064 73.948 26.804 71.392 26.804ZM82.6732 29.072C82.6732 23.528 86.6692 19.712 92.1772 19.712C97.6852 19.712 101.681 23.528 101.681 29.072C101.681 34.616 97.6852 38.432 92.1772 38.432C86.6692 38.432 82.6732 34.616 82.6732 29.072ZM87.0652 29.072C87.0652 32.312 89.1532 34.508 92.1772 34.508C95.2012 34.508 97.2892 32.312 97.2892 29.072C97.2892 25.832 95.2012 23.636 92.1772 23.636C89.1532 23.636 87.0652 25.832 87.0652 29.072ZM104.119 29.072C104.119 23.528 108.115 19.712 113.623 19.712C119.131 19.712 123.127 23.528 123.127 29.072C123.127 34.616 119.131 38.432 113.623 38.432C108.115 38.432 104.119 34.616 104.119 29.072ZM108.511 29.072C108.511 32.312 110.599 34.508 113.623 34.508C116.647 34.508 118.735 32.312 118.735 29.072C118.735 25.832 116.647 23.636 113.623 23.636C110.599 23.636 108.511 25.832 108.511 29.072ZM131.036 38H126.68V11.216H131.036V27.668L137.948 20.216H143.456L136.688 27.272L143.312 38H138.272L133.628 30.512L131.036 33.212V38ZM154.818 19.028C154.818 14.42 158.634 11.216 164.178 11.216C169.506 11.216 172.89 14.168 173.034 18.92H168.426C168.318 16.652 166.698 15.32 164.106 15.32C161.262 15.32 159.426 16.688 159.426 18.884C159.426 20.756 160.434 21.8 162.63 22.304L166.77 23.204C171.27 24.176 173.466 26.48 173.466 30.404C173.466 35.3 169.65 38.468 163.854 38.468C158.238 38.468 154.566 35.48 154.458 30.764H159.066C159.102 32.996 160.902 34.328 163.854 34.328C166.914 34.328 168.858 32.996 168.858 30.8C168.858 29.036 167.958 27.992 165.798 27.524L161.622 26.588C157.158 25.616 154.818 23.06 154.818 19.028ZM184.943 38.468C179.651 38.468 175.943 34.616 175.943 29.108C175.943 23.528 179.579 19.676 184.799 19.676C190.127 19.676 193.511 23.24 193.511 28.784V30.116L180.119 30.152C180.443 33.284 182.099 34.868 185.015 34.868C187.427 34.868 189.011 33.932 189.515 32.24H193.583C192.827 36.128 189.587 38.468 184.943 38.468ZM184.835 23.276C182.243 23.276 180.659 24.68 180.227 27.344H189.155C189.155 24.896 187.463 23.276 184.835 23.276ZM204.982 38.468C199.69 38.468 195.982 34.616 195.982 29.108C195.982 23.528 199.618 19.676 204.838 19.676C210.166 19.676 213.55 23.24 213.55 28.784V30.116L200.158 30.152C200.482 33.284 202.138 34.868 205.054 34.868C207.466 34.868 209.05 33.932 209.554 32.24H213.622C212.866 36.128 209.626 38.468 204.982 38.468ZM204.874 23.276C202.282 23.276 200.698 24.68 200.266 27.344H209.194C209.194 24.896 207.502 23.276 204.874 23.276ZM221.493 38H217.137V11.216H221.493V27.668L228.405 20.216H233.913L227.145 27.272L233.769 38H228.729L224.085 30.512L221.493 33.212V38Z" fill="black"/>
</svg>
